<svg width="38" height="50" viewBox="0 0 38 50" fill="none" xmlns="http://www.w3.org/2000/svg">
<path fill-rule="evenodd" clip-rule="evenodd" d="M24.5487 19.7932L21.8391 17.257C21.8337 17.2519 21.8261 17.2509 21.8206 17.2458L20.3093 15.8321L33.0668 3.89086C33.7769 3.22627 33.9791 2.27467 33.5953 1.40755C33.2104 0.539407 32.3492 0 31.3456 0H17.7105C16.7874 0.00101775 15.8893 0.177088 15.0412 0.523123C15.0227 0.531265 15.0085 0.545514 14.9911 0.553656C14.9737 0.561798 14.9542 0.562816 14.9368 0.571975L13.8625 1.14599C13.8364 1.16023 13.8103 1.1755 13.7842 1.1928C13.6994 1.25081 13.6211 1.31391 13.5439 1.37905L13.3699 1.51645C13.234 1.61822 13.0992 1.72203 12.9774 1.83602L1.76384 12.3311C-0.296642 14.2617 -0.296642 17.4025 1.76601 19.3332L13.4548 30.2088C13.4591 30.2129 13.4635 30.217 13.4678 30.2211L16.1622 32.742C16.1709 32.7502 16.1818 32.7522 16.1905 32.7593L17.6877 34.1669L4.92795 46.1102C4.21793 46.7737 4.01569 47.7253 4.39951 48.5935C4.78334 49.4616 5.64559 50 6.64919 50H20.2842C21.2106 49.999 22.1109 49.8219 22.9612 49.4738C22.9754 49.4677 22.9862 49.4565 23.0004 49.4504C23.0243 49.4402 23.0493 49.4352 23.0732 49.4229L24.1268 48.8591C24.1627 48.8408 24.2073 48.8103 24.2399 48.7868C24.3139 48.737 24.3824 48.681 24.515 48.5711L24.6085 48.4998C24.7521 48.392 24.8945 48.2831 25.0228 48.163L36.2364 37.6679C38.298 35.7373 38.2969 32.5965 36.2342 30.6658L24.5487 19.7932ZM20.4582 31.5014C20.244 31.7436 20.0189 31.9787 19.7819 32.2067L18.9327 33.0005L17.3245 31.4882C15.4435 29.6939 14.5453 27.2513 14.7922 24.6143C14.852 23.9823 14.9737 23.3563 15.1532 22.7426C15.3097 22.2124 15.5174 21.6943 15.7577 21.1875C15.7958 21.1071 15.8262 21.0257 15.8664 20.9463C16.4536 19.784 17.2604 18.7001 18.2575 17.7516L19.0654 16.9985L20.6452 18.4772C22.5481 20.2756 23.4581 22.7284 23.207 25.3847C23.0015 27.578 22.0424 29.7091 20.4582 31.5014ZM17.7105 1.64875H31.3456C31.7631 1.64875 31.9273 1.94695 31.9675 2.03855C32.0078 2.12913 32.1165 2.44871 31.8218 2.72452L19.0643 14.6658L18.2803 13.932L18.277 13.9289C16.3133 12.0634 15.1336 9.65437 14.9531 7.14358C14.9433 7.00415 14.9357 6.84844 14.9313 6.67847C14.9313 6.65303 14.9324 6.62148 14.9313 6.59604C14.9292 6.44643 14.9281 6.29173 14.9335 6.1238C14.9335 6.10955 14.9346 6.09428 14.9357 6.08004C14.9618 5.29637 15.0825 4.33052 15.4239 3.31074C15.425 3.30463 15.4283 3.29853 15.4304 3.29242C15.5109 3.05223 15.6055 2.81001 15.712 2.56575C15.7457 2.48942 15.7871 2.41308 15.8229 2.33574C15.8871 2.20037 15.9567 2.06501 16.0295 1.92864C16.5699 1.74442 17.1343 1.64977 17.7105 1.64875ZM3.011 18.1668C1.63553 16.8794 1.63553 14.7848 3.00991 13.4964L13.4874 3.69036C13.4722 3.75346 13.4667 3.81147 13.4526 3.87457C13.3939 4.13512 13.3438 4.39057 13.3058 4.6389C13.2895 4.75085 13.2775 4.8567 13.2634 4.96662C13.2384 5.16915 13.2177 5.36456 13.2047 5.55386C13.1971 5.65869 13.1894 5.75945 13.1851 5.8602C13.1764 6.0495 13.1721 6.22659 13.1721 6.39859C13.1721 6.47492 13.1699 6.55227 13.171 6.62351C13.1742 6.85454 13.1829 7.06827 13.196 7.2535C13.4015 10.1297 14.7367 12.8857 16.9929 15.0566C17.007 15.0708 17.0201 15.0851 17.0342 15.0973L17.8193 15.8331L17.0081 16.5903C14.7215 18.7632 13.3112 21.562 13.0383 24.4698C13.0057 24.8188 12.9959 25.1628 12.997 25.5058C12.997 25.6005 13.0003 25.6941 13.0024 25.7888C13.0111 26.0656 13.0307 26.3404 13.0611 26.6121C13.0688 26.6803 13.0731 26.7505 13.0818 26.8187C13.1209 27.1108 13.1688 27.3999 13.2329 27.6848L3.011 18.1668ZM20.2832 48.3512H6.64919C6.23166 48.3512 6.06747 48.053 6.02724 47.9625C5.98701 47.8709 5.87828 47.5523 6.17294 47.2755L18.9338 35.3312L19.7167 36.065C19.7232 36.0701 19.7286 36.0741 19.7341 36.0802C21.6912 37.9437 22.8677 40.3497 23.0471 42.8554C23.0569 42.9958 23.0645 43.1526 23.0689 43.3225C23.0711 43.3918 23.0689 43.4732 23.0689 43.5475C23.0689 43.6523 23.0711 43.7531 23.0678 43.866C23.0645 44.0044 23.0537 44.154 23.0439 44.3037C23.0406 44.3596 23.0384 44.4115 23.0341 44.4695C23.0167 44.6711 22.9928 44.8817 22.9601 45.0985C22.9591 45.1067 22.958 45.1148 22.9569 45.1229C22.8547 45.8008 22.6687 46.5407 22.3556 47.2877C22.3523 47.2979 22.348 47.307 22.3447 47.3172C22.2588 47.5187 22.1577 47.7192 22.0533 47.9197C22.0272 47.9696 22.0033 48.0195 21.975 48.0683C21.4325 48.2556 20.8649 48.3512 20.2832 48.3512ZM34.9903 36.5026L24.5128 46.3086C24.5281 46.2455 24.5346 46.1865 24.5487 46.1234C24.6064 45.8629 24.6564 45.6084 24.6944 45.3611C24.7118 45.2481 24.7238 45.1413 24.7368 45.0313C24.7618 44.8288 24.7825 44.6344 24.7966 44.4451C24.8032 44.3403 24.8108 44.2395 24.8151 44.1388C24.8238 43.9495 24.8282 43.7734 24.8282 43.6024C24.8293 43.5251 24.8314 43.4467 24.8293 43.3745C24.826 43.1444 24.8173 42.9297 24.8043 42.7455C24.5987 39.8693 23.2646 37.1133 21.0073 34.9424C20.979 34.9129 20.9475 34.8844 20.9149 34.8579L20.9171 34.8559L20.1799 34.1659L21.0345 33.3649C23.2961 31.1981 24.6912 28.4146 24.9619 25.5292C24.9956 25.1781 25.0043 24.8311 25.0032 24.486C25.0032 24.3924 25 24.3008 24.9978 24.2082C24.9891 23.9202 24.9695 23.6362 24.9369 23.3543C24.9304 23.2953 24.9271 23.2342 24.9195 23.1752C24.8804 22.8851 24.8325 22.5981 24.7695 22.3162L34.9892 31.8322C36.3647 33.1196 36.3647 35.2141 34.9903 36.5026Z" fill="#262826"/>
</svg>
